solid OpenSCAD_Model
  facet normal 1 -0 0
    outer loop
      vertex 45 0 10
      vertex 45 20 0
      vertex 45 20 10
    endloop
  endfacet
  facet normal 1 0 0
    outer loop
      vertex 45 20 0
      vertex 45 0 10
      vertex 45 0 0
    endloop
  endfacet
  facet normal -0 0 1
    outer loop
      vertex 35 20 10
      vertex 45 0 10
      vertex 45 20 10
    endloop
  endfacet
  facet normal 0 0 1
    outer loop
      vertex 25 0 10
      vertex 35 20 10
      vertex 25 20 10
    endloop
  endfacet
  facet normal 0 0 1
    outer loop
      vertex 35 20 10
      vertex 25 0 10
      vertex 45 0 10
    endloop
  endfacet
  facet normal 0 0 -1
    outer loop
      vertex 45 0 0
      vertex 35 20 0
      vertex 45 20 0
    endloop
  endfacet
  facet normal 0 0 -1
    outer loop
      vertex 25 0 0
      vertex 35 20 0
      vertex 45 0 0
    endloop
  endfacet
  facet normal 0 0 -1
    outer loop
      vertex 25 40 0
      vertex 35 20 0
      vertex 25 0 0
    endloop
  endfacet
  facet normal 0 0 -1
    outer loop
      vertex 35 20 0
      vertex 25 40 0
      vertex 35 40 0
    endloop
  endfacet
  facet normal -1 0 0
    outer loop
      vertex 25 40 0
      vertex 25 20 10
      vertex 25 40 20
    endloop
  endfacet
  facet normal -1 0 0
    outer loop
      vertex 25 0 0
      vertex 25 20 10
      vertex 25 40 0
    endloop
  endfacet
  facet normal -1 -0 0
    outer loop
      vertex 25 20 10
      vertex 25 0 0
      vertex 25 0 10
    endloop
  endfacet
  facet normal -1 -0 0
    outer loop
      vertex 25 40 20
      vertex 25 20 10
      vertex 25 20 20
    endloop
  endfacet
  facet normal 0 -1 0
    outer loop
      vertex 25 20 10
      vertex 35 20 20
      vertex 25 20 20
    endloop
  endfacet
  facet normal 0 -1 -0
    outer loop
      vertex 35 20 20
      vertex 25 20 10
      vertex 35 20 10
    endloop
  endfacet
  facet normal 0 1 -0
    outer loop
      vertex 45 20 0
      vertex 35 20 10
      vertex 45 20 10
    endloop
  endfacet
  facet normal 0 1 0
    outer loop
      vertex 35 20 10
      vertex 45 20 0
      vertex 35 20 0
    endloop
  endfacet
  facet normal 0 -1 0
    outer loop
      vertex 25 0 0
      vertex 45 0 10
      vertex 25 0 10
    endloop
  endfacet
  facet normal 0 -1 -0
    outer loop
      vertex 45 0 10
      vertex 25 0 0
      vertex 45 0 0
    endloop
  endfacet
  facet normal 1 0 0
    outer loop
      vertex 35 20 10
      vertex 35 40 20
      vertex 35 20 20
    endloop
  endfacet
  facet normal 1 0 0
    outer loop
      vertex 35 40 20
      vertex 35 20 10
      vertex 35 40 0
    endloop
  endfacet
  facet normal 1 0 0
    outer loop
      vertex 35 40 0
      vertex 35 20 10
      vertex 35 20 0
    endloop
  endfacet
  facet normal -0 0 1
    outer loop
      vertex 25 40 20
      vertex 35 20 20
      vertex 35 40 20
    endloop
  endfacet
  facet normal 0 0 1
    outer loop
      vertex 35 20 20
      vertex 25 40 20
      vertex 25 20 20
    endloop
  endfacet
  facet normal 0 1 -0
    outer loop
      vertex 35 40 0
      vertex 25 40 20
      vertex 35 40 20
    endloop
  endfacet
  facet normal 0 1 0
    outer loop
      vertex 25 40 20
      vertex 35 40 0
      vertex 25 40 0
    endloop
  endfacet
  facet normal 1 -0 0
    outer loop
      vertex 70 0 10
      vertex 70 20 0
      vertex 70 20 10
    endloop
  endfacet
  facet normal 1 0 0
    outer loop
      vertex 70 20 0
      vertex 70 0 10
      vertex 70 0 0
    endloop
  endfacet
  facet normal -0 0 1
    outer loop
      vertex 60 20 10
      vertex 70 0 10
      vertex 70 20 10
    endloop
  endfacet
  facet normal 0 0 1
    outer loop
      vertex 50 0 10
      vertex 60 20 10
      vertex 50 20 10
    endloop
  endfacet
  facet normal 0 0 1
    outer loop
      vertex 60 20 10
      vertex 50 0 10
      vertex 70 0 10
    endloop
  endfacet
  facet normal 0 0 -1
    outer loop
      vertex 70 0 0
      vertex 60 20 0
      vertex 70 20 0
    endloop
  endfacet
  facet normal 0 0 -1
    outer loop
      vertex 50 0 0
      vertex 60 20 0
      vertex 70 0 0
    endloop
  endfacet
  facet normal 0 0 -1
    outer loop
      vertex 50 40 0
      vertex 60 20 0
      vertex 50 0 0
    endloop
  endfacet
  facet normal 0 0 -1
    outer loop
      vertex 60 20 0
      vertex 50 40 0
      vertex 60 40 0
    endloop
  endfacet
  facet normal -1 0 0
    outer loop
      vertex 50 40 0
      vertex 50 20 10
      vertex 50 40 20
    endloop
  endfacet
  facet normal -1 0 0
    outer loop
      vertex 50 0 0
      vertex 50 20 10
      vertex 50 40 0
    endloop
  endfacet
  facet normal -1 -0 0
    outer loop
      vertex 50 20 10
      vertex 50 0 0
      vertex 50 0 10
    endloop
  endfacet
  facet normal -1 -0 0
    outer loop
      vertex 50 40 20
      vertex 50 20 10
      vertex 50 20 20
    endloop
  endfacet
  facet normal 0 -1 0
    outer loop
      vertex 50 20 10
      vertex 60 20 20
      vertex 50 20 20
    endloop
  endfacet
  facet normal 0 -1 -0
    outer loop
      vertex 60 20 20
      vertex 50 20 10
      vertex 60 20 10
    endloop
  endfacet
  facet normal 0 1 -0
    outer loop
      vertex 70 20 0
      vertex 60 20 10
      vertex 70 20 10
    endloop
  endfacet
  facet normal 0 1 0
    outer loop
      vertex 60 20 10
      vertex 70 20 0
      vertex 60 20 0
    endloop
  endfacet
  facet normal 0 -1 0
    outer loop
      vertex 50 0 0
      vertex 70 0 10
      vertex 50 0 10
    endloop
  endfacet
  facet normal 0 -1 -0
    outer loop
      vertex 70 0 10
      vertex 50 0 0
      vertex 70 0 0
    endloop
  endfacet
  facet normal 1 0 0
    outer loop
      vertex 60 20 10
      vertex 60 40 20
      vertex 60 20 20
    endloop
  endfacet
  facet normal 1 0 0
    outer loop
      vertex 60 40 20
      vertex 60 20 10
      vertex 60 40 0
    endloop
  endfacet
  facet normal 1 0 0
    outer loop
      vertex 60 40 0
      vertex 60 20 10
      vertex 60 20 0
    endloop
  endfacet
  facet normal -0 0 1
    outer loop
      vertex 50 40 20
      vertex 60 20 20
      vertex 60 40 20
    endloop
  endfacet
  facet normal 0 0 1
    outer loop
      vertex 60 20 20
      vertex 50 40 20
      vertex 50 20 20
    endloop
  endfacet
  facet normal 0 1 -0
    outer loop
      vertex 60 40 0
      vertex 50 40 20
      vertex 60 40 20
    endloop
  endfacet
  facet normal 0 1 0
    outer loop
      vertex 50 40 20
      vertex 60 40 0
      vertex 50 40 0
    endloop
  endfacet
  facet normal 1 -0 0
    outer loop
      vertex 20 45 10
      vertex 20 65 0
      vertex 20 65 10
    endloop
  endfacet
  facet normal 1 0 0
    outer loop
      vertex 20 65 0
      vertex 20 45 10
      vertex 20 45 0
    endloop
  endfacet
  facet normal -0 0 1
    outer loop
      vertex 10 65 10
      vertex 20 45 10
      vertex 20 65 10
    endloop
  endfacet
  facet normal 0 0 1
    outer loop
      vertex 0 45 10
      vertex 10 65 10
      vertex 0 65 10
    endloop
  endfacet
  facet normal 0 0 1
    outer loop
      vertex 10 65 10
      vertex 0 45 10
      vertex 20 45 10
    endloop
  endfacet
  facet normal 0 0 -1
    outer loop
      vertex 20 45 0
      vertex 10 65 0
      vertex 20 65 0
    endloop
  endfacet
  facet normal 0 0 -1
    outer loop
      vertex 0 45 0
      vertex 10 65 0
      vertex 20 45 0
    endloop
  endfacet
  facet normal 0 0 -1
    outer loop
      vertex 0 85 0
      vertex 10 65 0
      vertex 0 45 0
    endloop
  endfacet
  facet normal 0 0 -1
    outer loop
      vertex 10 65 0
      vertex 0 85 0
      vertex 10 85 0
    endloop
  endfacet
  facet normal -1 0 0
    outer loop
      vertex 0 85 0
      vertex 0 65 10
      vertex 0 85 20
    endloop
  endfacet
  facet normal -1 0 0
    outer loop
      vertex 0 45 0
      vertex 0 65 10
      vertex 0 85 0
    endloop
  endfacet
  facet normal -1 -0 0
    outer loop
      vertex 0 65 10
      vertex 0 45 0
      vertex 0 45 10
    endloop
  endfacet
  facet normal -1 -0 0
    outer loop
      vertex 0 85 20
      vertex 0 65 10
      vertex 0 65 20
    endloop
  endfacet
  facet normal 0 -1 0
    outer loop
      vertex 0 65 10
      vertex 10 65 20
      vertex 0 65 20
    endloop
  endfacet
  facet normal 0 -1 -0
    outer loop
      vertex 10 65 20
      vertex 0 65 10
      vertex 10 65 10
    endloop
  endfacet
  facet normal 0 1 -0
    outer loop
      vertex 20 65 0
      vertex 10 65 10
      vertex 20 65 10
    endloop
  endfacet
  facet normal 0 1 0
    outer loop
      vertex 10 65 10
      vertex 20 65 0
      vertex 10 65 0
    endloop
  endfacet
  facet normal 0 -1 0
    outer loop
      vertex 0 45 0
      vertex 20 45 10
      vertex 0 45 10
    endloop
  endfacet
  facet normal 0 -1 -0
    outer loop
      vertex 20 45 10
      vertex 0 45 0
      vertex 20 45 0
    endloop
  endfacet
  facet normal 1 0 0
    outer loop
      vertex 10 65 10
      vertex 10 85 20
      vertex 10 65 20
    endloop
  endfacet
  facet normal 1 0 0
    outer loop
      vertex 10 85 20
      vertex 10 65 10
      vertex 10 85 0
    endloop
  endfacet
  facet normal 1 0 0
    outer loop
      vertex 10 85 0
      vertex 10 65 10
      vertex 10 65 0
    endloop
  endfacet
  facet normal -0 0 1
    outer loop
      vertex 0 85 20
      vertex 10 65 20
      vertex 10 85 20
    endloop
  endfacet
  facet normal 0 0 1
    outer loop
      vertex 10 65 20
      vertex 0 85 20
      vertex 0 65 20
    endloop
  endfacet
  facet normal 0 1 -0
    outer loop
      vertex 10 85 0
      vertex 0 85 20
      vertex 10 85 20
    endloop
  endfacet
  facet normal 0 1 0
    outer loop
      vertex 0 85 20
      vertex 10 85 0
      vertex 0 85 0
    endloop
  endfacet
  facet normal 1 -0 0
    outer loop
      vertex 45 45 10
      vertex 45 65 0
      vertex 45 65 10
    endloop
  endfacet
  facet normal 1 0 0
    outer loop
      vertex 45 65 0
      vertex 45 45 10
      vertex 45 45 0
    endloop
  endfacet
  facet normal -0 0 1
    outer loop
      vertex 35 65 10
      vertex 45 45 10
      vertex 45 65 10
    endloop
  endfacet
  facet normal 0 0 1
    outer loop
      vertex 25 45 10
      vertex 35 65 10
      vertex 25 65 10
    endloop
  endfacet
  facet normal 0 0 1
    outer loop
      vertex 35 65 10
      vertex 25 45 10
      vertex 45 45 10
    endloop
  endfacet
  facet normal 0 0 -1
    outer loop
      vertex 45 45 0
      vertex 35 65 0
      vertex 45 65 0
    endloop
  endfacet
  facet normal 0 0 -1
    outer loop
      vertex 25 45 0
      vertex 35 65 0
      vertex 45 45 0
    endloop
  endfacet
  facet normal 0 0 -1
    outer loop
      vertex 25 85 0
      vertex 35 65 0
      vertex 25 45 0
    endloop
  endfacet
  facet normal 0 0 -1
    outer loop
      vertex 35 65 0
      vertex 25 85 0
      vertex 35 85 0
    endloop
  endfacet
  facet normal -1 0 0
    outer loop
      vertex 25 85 0
      vertex 25 65 10
      vertex 25 85 20
    endloop
  endfacet
  facet normal -1 0 0
    outer loop
      vertex 25 45 0
      vertex 25 65 10
      vertex 25 85 0
    endloop
  endfacet
  facet normal -1 -0 0
    outer loop
      vertex 25 65 10
      vertex 25 45 0
      vertex 25 45 10
    endloop
  endfacet
  facet normal -1 -0 0
    outer loop
      vertex 25 85 20
      vertex 25 65 10
      vertex 25 65 20
    endloop
  endfacet
  facet normal 0 -1 0
    outer loop
      vertex 25 65 10
      vertex 35 65 20
      vertex 25 65 20
    endloop
  endfacet
  facet normal 0 -1 -0
    outer loop
      vertex 35 65 20
      vertex 25 65 10
      vertex 35 65 10
    endloop
  endfacet
  facet normal 0 1 -0
    outer loop
      vertex 45 65 0
      vertex 35 65 10
      vertex 45 65 10
    endloop
  endfacet
  facet normal 0 1 0
    outer loop
      vertex 35 65 10
      vertex 45 65 0
      vertex 35 65 0
    endloop
  endfacet
  facet normal 0 -1 0
    outer loop
      vertex 25 45 0
      vertex 45 45 10
      vertex 25 45 10
    endloop
  endfacet
  facet normal 0 -1 -0
    outer loop
      vertex 45 45 10
      vertex 25 45 0
      vertex 45 45 0
    endloop
  endfacet
  facet normal 1 0 0
    outer loop
      vertex 35 65 10
      vertex 35 85 20
      vertex 35 65 20
    endloop
  endfacet
  facet normal 1 0 0
    outer loop
      vertex 35 85 20
      vertex 35 65 10
      vertex 35 85 0
    endloop
  endfacet
  facet normal 1 0 0
    outer loop
      vertex 35 85 0
      vertex 35 65 10
      vertex 35 65 0
    endloop
  endfacet
  facet normal -0 0 1
    outer loop
      vertex 25 85 20
      vertex 35 65 20
      vertex 35 85 20
    endloop
  endfacet
  facet normal 0 0 1
    outer loop
      vertex 35 65 20
      vertex 25 85 20
      vertex 25 65 20
    endloop
  endfacet
  facet normal 0 1 -0
    outer loop
      vertex 35 85 0
      vertex 25 85 20
      vertex 35 85 20
    endloop
  endfacet
  facet normal 0 1 0
    outer loop
      vertex 25 85 20
      vertex 35 85 0
      vertex 25 85 0
    endloop
  endfacet
  facet normal 1 -0 0
    outer loop
      vertex 70 45 10
      vertex 70 65 0
      vertex 70 65 10
    endloop
  endfacet
  facet normal 1 0 0
    outer loop
      vertex 70 65 0
      vertex 70 45 10
      vertex 70 45 0
    endloop
  endfacet
  facet normal -0 0 1
    outer loop
      vertex 60 65 10
      vertex 70 45 10
      vertex 70 65 10
    endloop
  endfacet
  facet normal 0 0 1
    outer loop
      vertex 50 45 10
      vertex 60 65 10
      vertex 50 65 10
    endloop
  endfacet
  facet normal 0 0 1
    outer loop
      vertex 60 65 10
      vertex 50 45 10
      vertex 70 45 10
    endloop
  endfacet
  facet normal 0 0 -1
    outer loop
      vertex 70 45 0
      vertex 60 65 0
      vertex 70 65 0
    endloop
  endfacet
  facet normal 0 0 -1
    outer loop
      vertex 50 45 0
      vertex 60 65 0
      vertex 70 45 0
    endloop
  endfacet
  facet normal 0 0 -1
    outer loop
      vertex 50 85 0
      vertex 60 65 0
      vertex 50 45 0
    endloop
  endfacet
  facet normal 0 0 -1
    outer loop
      vertex 60 65 0
      vertex 50 85 0
      vertex 60 85 0
    endloop
  endfacet
  facet normal -1 0 0
    outer loop
      vertex 50 85 0
      vertex 50 65 10
      vertex 50 85 20
    endloop
  endfacet
  facet normal -1 0 0
    outer loop
      vertex 50 45 0
      vertex 50 65 10
      vertex 50 85 0
    endloop
  endfacet
  facet normal -1 -0 0
    outer loop
      vertex 50 65 10
      vertex 50 45 0
      vertex 50 45 10
    endloop
  endfacet
  facet normal -1 -0 0
    outer loop
      vertex 50 85 20
      vertex 50 65 10
      vertex 50 65 20
    endloop
  endfacet
  facet normal 0 -1 0
    outer loop
      vertex 50 65 10
      vertex 60 65 20
      vertex 50 65 20
    endloop
  endfacet
  facet normal 0 -1 -0
    outer loop
      vertex 60 65 20
      vertex 50 65 10
      vertex 60 65 10
    endloop
  endfacet
  facet normal 0 1 -0
    outer loop
      vertex 70 65 0
      vertex 60 65 10
      vertex 70 65 10
    endloop
  endfacet
  facet normal 0 1 0
    outer loop
      vertex 60 65 10
      vertex 70 65 0
      vertex 60 65 0
    endloop
  endfacet
  facet normal 0 -1 0
    outer loop
      vertex 50 45 0
      vertex 70 45 10
      vertex 50 45 10
    endloop
  endfacet
  facet normal 0 -1 -0
    outer loop
      vertex 70 45 10
      vertex 50 45 0
      vertex 70 45 0
    endloop
  endfacet
  facet normal 1 0 0
    outer loop
      vertex 60 65 10
      vertex 60 85 20
      vertex 60 65 20
    endloop
  endfacet
  facet normal 1 0 0
    outer loop
      vertex 60 85 20
      vertex 60 65 10
      vertex 60 85 0
    endloop
  endfacet
  facet normal 1 0 0
    outer loop
      vertex 60 85 0
      vertex 60 65 10
      vertex 60 65 0
    endloop
  endfacet
  facet normal -0 0 1
    outer loop
      vertex 50 85 20
      vertex 60 65 20
      vertex 60 85 20
    endloop
  endfacet
  facet normal 0 0 1
    outer loop
      vertex 60 65 20
      vertex 50 85 20
      vertex 50 65 20
    endloop
  endfacet
  facet normal 0 1 -0
    outer loop
      vertex 60 85 0
      vertex 50 85 20
      vertex 60 85 20
    endloop
  endfacet
  facet normal 0 1 0
    outer loop
      vertex 50 85 20
      vertex 60 85 0
      vertex 50 85 0
    endloop
  endfacet
  facet normal 1 -0 0
    outer loop
      vertex 20 90 10
      vertex 20 110 0
      vertex 20 110 10
    endloop
  endfacet
  facet normal 1 0 0
    outer loop
      vertex 20 110 0
      vertex 20 90 10
      vertex 20 90 0
    endloop
  endfacet
  facet normal -0 0 1
    outer loop
      vertex 10 110 10
      vertex 20 90 10
      vertex 20 110 10
    endloop
  endfacet
  facet normal 0 0 1
    outer loop
      vertex 0 90 10
      vertex 10 110 10
      vertex 0 110 10
    endloop
  endfacet
  facet normal 0 0 1
    outer loop
      vertex 10 110 10
      vertex 0 90 10
      vertex 20 90 10
    endloop
  endfacet
  facet normal 0 0 -1
    outer loop
      vertex 20 90 0
      vertex 10 110 0
      vertex 20 110 0
    endloop
  endfacet
  facet normal 0 0 -1
    outer loop
      vertex 0 90 0
      vertex 10 110 0
      vertex 20 90 0
    endloop
  endfacet
  facet normal 0 0 -1
    outer loop
      vertex 0 130 0
      vertex 10 110 0
      vertex 0 90 0
    endloop
  endfacet
  facet normal 0 0 -1
    outer loop
      vertex 10 110 0
      vertex 0 130 0
      vertex 10 130 0
    endloop
  endfacet
  facet normal -1 0 0
    outer loop
      vertex 0 130 0
      vertex 0 110 10
      vertex 0 130 20
    endloop
  endfacet
  facet normal -1 0 0
    outer loop
      vertex 0 90 0
      vertex 0 110 10
      vertex 0 130 0
    endloop
  endfacet
  facet normal -1 -0 0
    outer loop
      vertex 0 110 10
      vertex 0 90 0
      vertex 0 90 10
    endloop
  endfacet
  facet normal -1 -0 0
    outer loop
      vertex 0 130 20
      vertex 0 110 10
      vertex 0 110 20
    endloop
  endfacet
  facet normal 0 -1 0
    outer loop
      vertex 0 110 10
      vertex 10 110 20
      vertex 0 110 20
    endloop
  endfacet
  facet normal 0 -1 -0
    outer loop
      vertex 10 110 20
      vertex 0 110 10
      vertex 10 110 10
    endloop
  endfacet
  facet normal 0 1 -0
    outer loop
      vertex 20 110 0
      vertex 10 110 10
      vertex 20 110 10
    endloop
  endfacet
  facet normal 0 1 0
    outer loop
      vertex 10 110 10
      vertex 20 110 0
      vertex 10 110 0
    endloop
  endfacet
  facet normal 0 -1 0
    outer loop
      vertex 0 90 0
      vertex 20 90 10
      vertex 0 90 10
    endloop
  endfacet
  facet normal 0 -1 -0
    outer loop
      vertex 20 90 10
      vertex 0 90 0
      vertex 20 90 0
    endloop
  endfacet
  facet normal 1 0 0
    outer loop
      vertex 10 110 10
      vertex 10 130 20
      vertex 10 110 20
    endloop
  endfacet
  facet normal 1 0 0
    outer loop
      vertex 10 130 20
      vertex 10 110 10
      vertex 10 130 0
    endloop
  endfacet
  facet normal 1 0 0
    outer loop
      vertex 10 130 0
      vertex 10 110 10
      vertex 10 110 0
    endloop
  endfacet
  facet normal -0 0 1
    outer loop
      vertex 0 130 20
      vertex 10 110 20
      vertex 10 130 20
    endloop
  endfacet
  facet normal 0 0 1
    outer loop
      vertex 10 110 20
      vertex 0 130 20
      vertex 0 110 20
    endloop
  endfacet
  facet normal 0 1 -0
    outer loop
      vertex 10 130 0
      vertex 0 130 20
      vertex 10 130 20
    endloop
  endfacet
  facet normal 0 1 0
    outer loop
      vertex 0 130 20
      vertex 10 130 0
      vertex 0 130 0
    endloop
  endfacet
  facet normal 1 -0 0
    outer loop
      vertex 45 90 10
      vertex 45 110 0
      vertex 45 110 10
    endloop
  endfacet
  facet normal 1 0 0
    outer loop
      vertex 45 110 0
      vertex 45 90 10
      vertex 45 90 0
    endloop
  endfacet
  facet normal -0 0 1
    outer loop
      vertex 35 110 10
      vertex 45 90 10
      vertex 45 110 10
    endloop
  endfacet
  facet normal 0 0 1
    outer loop
      vertex 25 90 10
      vertex 35 110 10
      vertex 25 110 10
    endloop
  endfacet
  facet normal 0 0 1
    outer loop
      vertex 35 110 10
      vertex 25 90 10
      vertex 45 90 10
    endloop
  endfacet
  facet normal 0 0 -1
    outer loop
      vertex 45 90 0
      vertex 35 110 0
      vertex 45 110 0
    endloop
  endfacet
  facet normal 0 0 -1
    outer loop
      vertex 25 90 0
      vertex 35 110 0
      vertex 45 90 0
    endloop
  endfacet
  facet normal 0 0 -1
    outer loop
      vertex 25 130 0
      vertex 35 110 0
      vertex 25 90 0
    endloop
  endfacet
  facet normal 0 0 -1
    outer loop
      vertex 35 110 0
      vertex 25 130 0
      vertex 35 130 0
    endloop
  endfacet
  facet normal -1 0 0
    outer loop
      vertex 25 130 0
      vertex 25 110 10
      vertex 25 130 20
    endloop
  endfacet
  facet normal -1 0 0
    outer loop
      vertex 25 90 0
      vertex 25 110 10
      vertex 25 130 0
    endloop
  endfacet
  facet normal -1 -0 0
    outer loop
      vertex 25 110 10
      vertex 25 90 0
      vertex 25 90 10
    endloop
  endfacet
  facet normal -1 -0 0
    outer loop
      vertex 25 130 20
      vertex 25 110 10
      vertex 25 110 20
    endloop
  endfacet
  facet normal 0 -1 0
    outer loop
      vertex 25 110 10
      vertex 35 110 20
      vertex 25 110 20
    endloop
  endfacet
  facet normal 0 -1 -0
    outer loop
      vertex 35 110 20
      vertex 25 110 10
      vertex 35 110 10
    endloop
  endfacet
  facet normal 0 1 -0
    outer loop
      vertex 45 110 0
      vertex 35 110 10
      vertex 45 110 10
    endloop
  endfacet
  facet normal 0 1 0
    outer loop
      vertex 35 110 10
      vertex 45 110 0
      vertex 35 110 0
    endloop
  endfacet
  facet normal 0 -1 0
    outer loop
      vertex 25 90 0
      vertex 45 90 10
      vertex 25 90 10
    endloop
  endfacet
  facet normal 0 -1 -0
    outer loop
      vertex 45 90 10
      vertex 25 90 0
      vertex 45 90 0
    endloop
  endfacet
  facet normal 1 0 0
    outer loop
      vertex 35 110 10
      vertex 35 130 20
      vertex 35 110 20
    endloop
  endfacet
  facet normal 1 0 0
    outer loop
      vertex 35 130 20
      vertex 35 110 10
      vertex 35 130 0
    endloop
  endfacet
  facet normal 1 0 0
    outer loop
      vertex 35 130 0
      vertex 35 110 10
      vertex 35 110 0
    endloop
  endfacet
  facet normal -0 0 1
    outer loop
      vertex 25 130 20
      vertex 35 110 20
      vertex 35 130 20
    endloop
  endfacet
  facet normal 0 0 1
    outer loop
      vertex 35 110 20
      vertex 25 130 20
      vertex 25 110 20
    endloop
  endfacet
  facet normal 0 1 -0
    outer loop
      vertex 35 130 0
      vertex 25 130 20
      vertex 35 130 20
    endloop
  endfacet
  facet normal 0 1 0
    outer loop
      vertex 25 130 20
      vertex 35 130 0
      vertex 25 130 0
    endloop
  endfacet
endsolid OpenSCAD_Model
