solid OpenSCAD_Model
  facet normal -0.707115 0.707099 0
    outer loop
      vertex 0 86.5996 0.400391
      vertex 0.400391 87 5
      vertex 0.400391 87 0
    endloop
  endfacet
  facet normal -0.707115 0.707099 0
    outer loop
      vertex 0.400391 87 5
      vertex 0 86.5996 0.400391
      vertex 0 86.5996 4.59961
    endloop
  endfacet
  facet normal -0.707106 0 0.707108
    outer loop
      vertex 0 81.9666 4.59961
      vertex 0.400391 87 5
      vertex 0 86.5996 4.59961
    endloop
  endfacet
  facet normal -0.707106 0 0.707108
    outer loop
      vertex 0.400391 87 5
      vertex 0 81.9666 4.59961
      vertex 0.400391 81 5
    endloop
  endfacet
  facet normal -0.707095 -0.500006 -0.50001
    outer loop
      vertex 0 83.2831 3.28312
      vertex 0.400391 83 3
      vertex 0 81.9666 4.59961
    endloop
  endfacet
  facet normal -0.707089 -0.500013 -0.500013
    outer loop
      vertex 0.400391 83 3
      vertex 0.400391 81 5
      vertex 0 81.9666 4.59961
    endloop
  endfacet
  facet normal -0.706934 -0.514992 -0.484796
    outer loop
      vertex 0 83.3006 3.26453
      vertex 0.400391 83 3
      vertex 0 83.2831 3.28312
    endloop
  endfacet
  facet normal -0.706944 -0.545947 -0.449636
    outer loop
      vertex 0 83.3168 3.24486
      vertex 0.400391 83 3
      vertex 0 83.3006 3.26453
    endloop
  endfacet
  facet normal -0.706921 -0.57357 -0.41386
    outer loop
      vertex 0 83.3317 3.22421
      vertex 0.400391 83 3
      vertex 0 83.3168 3.24486
    endloop
  endfacet
  facet normal -0.706908 -0.598309 -0.377237
    outer loop
      vertex 0 83.3453 3.20264
      vertex 0.400391 83 3
      vertex 0 83.3317 3.22421
    endloop
  endfacet
  facet normal -0.70691 -0.621023 -0.338538
    outer loop
      vertex 0 83.3575 3.18026
      vertex 0.400391 83 3
      vertex 0 83.3453 3.20264
    endloop
  endfacet
  facet normal -0.706933 -0.640812 -0.299341
    outer loop
      vertex 0 83.3683 3.15714
      vertex 0.400391 83 3
      vertex 0 83.3575 3.18026
    endloop
  endfacet
  facet normal -0.706933 -0.659527 -0.25548
    outer loop
      vertex 0 83.3775 3.13339
      vertex 0.400391 83 3
      vertex 0 83.3683 3.15714
    endloop
  endfacet
  facet normal -0.706901 -0.674271 -0.213658
    outer loop
      vertex 0 83.3852 3.10909
      vertex 0.400391 83 3
      vertex 0 83.3775 3.13339
    endloop
  endfacet
  facet normal -0.706906 -0.686091 -0.171939
    outer loop
      vertex 0 83.3914 3.08435
      vertex 0.400391 83 3
      vertex 0 83.3852 3.10909
    endloop
  endfacet
  facet normal -0.706934 -0.695675 -0.127596
    outer loop
      vertex 0 83.396 3.05927
      vertex 0.400391 83 3
      vertex 0 83.3914 3.08435
    endloop
  endfacet
  facet normal -0.706914 -0.702706 -0.0804837
    outer loop
      vertex 0 83.3989 3.03395
      vertex 0.400391 83 3
      vertex 0 83.396 3.05927
    endloop
  endfacet
  facet normal -0.706905 -0.706241 -0.0388502
    outer loop
      vertex 0 83.4003 3.0085
      vertex 0.400391 83 3
      vertex 0 83.3989 3.03395
    endloop
  endfacet
  facet normal -0.706914 -0.707251 0.00832386
    outer loop
      vertex 0.400391 83 3
      vertex 0 83.4003 3.0085
      vertex 0 83.4 2.98301
    endloop
  endfacet
  facet normal -0.706897 -0.70535 0.0527002
    outer loop
      vertex 0.400391 83 3
      vertex 0 83.4 2.98301
      vertex 0 83.3981 2.95758
    endloop
  endfacet
  facet normal -0.706897 -0.700617 0.0971153
    outer loop
      vertex 0.400391 83 3
      vertex 0 83.3981 2.95758
      vertex 0 83.3946 2.93233
    endloop
  endfacet
  facet normal -0.706903 -0.693004 0.141543
    outer loop
      vertex 0.400391 83 3
      vertex 0 83.3946 2.93233
      vertex 0 83.3895 2.90736
    endloop
  endfacet
  facet normal -0.706898 -0.682456 0.185872
    outer loop
      vertex 0.400391 83 3
      vertex 0 83.3895 2.90736
      vertex 0 83.3828 2.88276
    endloop
  endfacet
  facet normal -0.706908 -0.669693 0.227579
    outer loop
      vertex 0.400391 83 3
      vertex 0 83.3828 2.88276
      vertex 0 83.3746 2.85863
    endloop
  endfacet
  facet normal -0.706906 -0.653022 0.271746
    outer loop
      vertex 0.400391 83 3
      vertex 0 83.3746 2.85863
      vertex 0 83.3648 2.83508
    endloop
  endfacet
  facet normal -0.706904 -0.635334 0.310867
    outer loop
      vertex 0.400391 83 3
      vertex 0 83.3648 2.83508
      vertex 0 83.3536 2.81219
    endloop
  endfacet
  facet normal -0.706907 -0.613396 0.352176
    outer loop
      vertex 0.400391 83 3
      vertex 0 83.3536 2.81219
      vertex 0 83.3409 2.79007
    endloop
  endfacet
  facet normal -0.706913 -0.590807 0.388871
    outer loop
      vertex 0.400391 83 3
      vertex 0 83.3409 2.79007
      vertex 0 83.3269 2.7688
    endloop
  endfacet
  facet normal -0.706922 -0.563797 0.427077
    outer loop
      vertex 0.400391 83 3
      vertex 0 83.3269 2.7688
      vertex 0 83.3115 2.74847
    endloop
  endfacet
  facet normal -0.706927 -0.536463 0.460936
    outer loop
      vertex 0.400391 83 3
      vertex 0 83.3115 2.74847
      vertex 0 83.2949 2.72915
    endloop
  endfacet
  facet normal -0.706921 -0.504542 0.495681
    outer loop
      vertex 0.400391 83 3
      vertex 0 83.2949 2.72915
      vertex 0 83.277 2.71093
    endloop
  endfacet
  facet normal -0.706919 -0.473616 0.525313
    outer loop
      vertex 0.400391 83 3
      vertex 0 83.277 2.71093
      vertex 0 83.2581 2.69389
    endloop
  endfacet
  facet normal -0.706933 -0.438442 0.55499
    outer loop
      vertex 0.400391 83 3
      vertex 0 83.2581 2.69389
      vertex 0 83.2381 2.67809
    endloop
  endfacet
  facet normal -0.706925 -0.401875 0.582026
    outer loop
      vertex 0.400391 83 3
      vertex 0 83.2381 2.67809
      vertex 0 83.2171 2.66359
    endloop
  endfacet
  facet normal -0.706931 -0.365119 0.605753
    outer loop
      vertex 0.400391 83 3
      vertex 0 83.2171 2.66359
      vertex 0 83.1953 2.65045
    endloop
  endfacet
  facet normal -0.706931 -0.324475 0.628462
    outer loop
      vertex 0.400391 83 3
      vertex 0 83.1953 2.65045
      vertex 0 83.1726 2.63873
    endloop
  endfacet
  facet normal -0.706927 -0.284805 0.64741
    outer loop
      vertex 0.400391 83 3
      vertex 0 83.1726 2.63873
      vertex 0 83.1493 2.62848
    endloop
  endfacet
  facet normal -0.706925 -0.242267 0.664503
    outer loop
      vertex 0.400391 83 3
      vertex 0 83.1493 2.62848
      vertex 0 83.1253 2.61973
    endloop
  endfacet
  facet normal -0.706925 -0.200175 0.678371
    outer loop
      vertex 0.400391 83 3
      vertex 0 83.1253 2.61973
      vertex 0 83.1009 2.61253
    endloop
  endfacet
  facet normal -0.706927 -0.156247 0.689813
    outer loop
      vertex 0.400391 83 3
      vertex 0 83.1009 2.61253
      vertex 0 83.076 2.60689
    endloop
  endfacet
  facet normal -0.706931 -0.112395 0.698295
    outer loop
      vertex 0.400391 83 3
      vertex 0 83.076 2.60689
      vertex 0 83.0509 2.60285
    endloop
  endfacet
  facet normal -0.706931 -0.0673576 0.704068
    outer loop
      vertex 0.400391 83 3
      vertex 0 83.0509 2.60285
      vertex 0 83.0255 2.60042
    endloop
  endfacet
  facet normal -0.706928 -0.0224554 0.706929
    outer loop
      vertex 0.400391 83 3
      vertex 0 83.0255 2.60042
      vertex 0 83 2.59961
    endloop
  endfacet
  facet normal -0.707106 0 0.707108
    outer loop
      vertex 0 4 2.59961
      vertex 0.400391 83 3
      vertex 0 83 2.59961
    endloop
  endfacet
  facet normal -0.707106 0 0.707108
    outer loop
      vertex 0.400391 83 3
      vertex 0 4 2.59961
      vertex 0.400391 4 3
    endloop
  endfacet
  facet normal -0.706927 0.022473 0.706929
    outer loop
      vertex 0.400391 4 3
      vertex 0 4 2.59961
      vertex 0 3.97452 2.60042
    endloop
  endfacet
  facet normal -0.706929 0.0674105 0.704065
    outer loop
      vertex 0.400391 4 3
      vertex 0 3.97452 2.60042
      vertex 0 3.94914 2.60285
    endloop
  endfacet
  facet normal -0.70693 0.11209 0.698345
    outer loop
      vertex 0.400391 4 3
      vertex 0 3.94914 2.60285
      vertex 0 3.92397 2.60689
    endloop
  endfacet
  facet normal -0.706929 0.156485 0.689757
    outer loop
      vertex 0.400391 4 3
      vertex 0 3.92397 2.60689
      vertex 0 3.89911 2.61253
    endloop
  endfacet
  facet normal -0.706928 0.199797 0.678479
    outer loop
      vertex 0.400391 4 3
      vertex 0 3.89911 2.61253
      vertex 0 3.87466 2.61973
    endloop
  endfacet
  facet normal -0.70693 0.242711 0.664335
    outer loop
      vertex 0.400391 4 3
      vertex 0 3.87466 2.61973
      vertex 0 3.85071 2.62848
    endloop
  endfacet
  facet normal -0.706931 0.284394 0.647587
    outer loop
      vertex 0.400391 4 3
      vertex 0 3.85071 2.62848
      vertex 0 3.82737 2.63873
    endloop
  endfacet
  facet normal -0.706931 0.325153 0.628111
    outer loop
      vertex 0.400391 4 3
      vertex 0 3.82737 2.63873
      vertex 0 3.80473 2.65045
    endloop
  endfacet
  facet normal -0.706929 0.364507 0.606124
    outer loop
      vertex 0.400391 4 3
      vertex 0 3.80473 2.65045
      vertex 0 3.78288 2.66359
    endloop
  endfacet
  facet normal -0.706927 0.402262 0.581755
    outer loop
      vertex 0.400391 4 3
      vertex 0 3.78288 2.66359
      vertex 0 3.76191 2.67809
    endloop
  endfacet
  facet normal -0.706928 0.438445 0.554994
    outer loop
      vertex 0.400391 4 3
      vertex 0 3.76191 2.67809
      vertex 0 3.74191 2.69389
    endloop
  endfacet
  facet normal -0.706931 0.472779 0.52605
    outer loop
      vertex 0.400391 4 3
      vertex 0 3.74191 2.69389
      vertex 0 3.72295 2.71093
    endloop
  endfacet
  facet normal -0.706931 0.505505 0.494685
    outer loop
      vertex 0.400391 4 3
      vertex 0 3.72295 2.71093
      vertex 0 3.70512 2.72915
    endloop
  endfacet
  facet normal -0.706927 0.535914 0.461574
    outer loop
      vertex 0.400391 4 3
      vertex 0 3.70512 2.72915
      vertex 0 3.68848 2.74847
    endloop
  endfacet
  facet normal -0.706926 0.564194 0.426545
    outer loop
      vertex 0.400391 4 3
      vertex 0 3.68848 2.74847
      vertex 0 3.67311 2.7688
    endloop
  endfacet
  facet normal -0.706925 0.590159 0.389832
    outer loop
      vertex 0.400391 4 3
      vertex 0 3.67311 2.7688
      vertex 0 3.65906 2.79007
    endloop
  endfacet
  facet normal -0.706926 0.613739 0.35154
    outer loop
      vertex 0.400391 4 3
      vertex 0 3.65906 2.79007
      vertex 0 3.64639 2.81219
    endloop
  endfacet
  facet normal -0.706928 0.634874 0.311751
    outer loop
      vertex 0.400391 4 3
      vertex 0 3.64639 2.81219
      vertex 0 3.63515 2.83508
    endloop
  endfacet
  facet normal -0.706927 0.653494 0.270555
    outer loop
      vertex 0.400391 4 3
      vertex 0 3.63515 2.83508
      vertex 0 3.6254 2.85863
    endloop
  endfacet
  facet normal -0.706925 0.669338 0.228568
    outer loop
      vertex 0.400391 4 3
      vertex 0 3.6254 2.85863
      vertex 0 3.61716 2.88276
    endloop
  endfacet
  facet normal -0.706928 0.682497 0.185606
    outer loop
      vertex 0.400391 4 3
      vertex 0 3.61716 2.88276
      vertex 0 3.61047 2.90736
    endloop
  endfacet
  facet normal -0.706929 0.692978 0.141537
    outer loop
      vertex 0.400391 4 3
      vertex 0 3.61047 2.90736
      vertex 0 3.60537 2.93233
    endloop
  endfacet
  facet normal -0.706928 0.700549 0.0973833
    outer loop
      vertex 0.400391 4 3
      vertex 0 3.60537 2.93233
      vertex 0 3.60186 2.95758
    endloop
  endfacet
  facet normal -0.706928 0.70534 0.052422
    outer loop
      vertex 0.400391 4 3
      vertex 0 3.60186 2.95758
      vertex 0 3.59997 2.98301
    endloop
  endfacet
  facet normal -0.706927 0.707247 0.00749143
    outer loop
      vertex 0.400391 4 3
      vertex 0 3.59997 2.98301
      vertex 0 3.5997 3.0085
    endloop
  endfacet
  facet normal -0.706928 0.706293 -0.0374654
    outer loop
      vertex 0 3.60105 3.03395
      vertex 0.400391 4 3
      vertex 0 3.5997 3.0085
    endloop
  endfacet
  facet normal -0.706928 0.702469 -0.0823987
    outer loop
      vertex 0 3.60402 3.05927
      vertex 0.400391 4 3
      vertex 0 3.60105 3.03395
    endloop
  endfacet
  facet normal -0.706925 0.695782 -0.127061
    outer loop
      vertex 0 3.6086 3.08435
      vertex 0.400391 4 3
      vertex 0 3.60402 3.05927
    endloop
  endfacet
  facet normal -0.706924 0.686335 -0.17089
    outer loop
      vertex 0 3.61476 3.10909
      vertex 0.400391 4 3
      vertex 0 3.6086 3.08435
    endloop
  endfacet
  facet normal -0.706927 0.674086 -0.214154
    outer loop
      vertex 0 3.62248 3.13339
      vertex 0.400391 4 3
      vertex 0 3.61476 3.10909
    endloop
  endfacet
  facet normal -0.70693 0.659061 -0.256687
    outer loop
      vertex 0 3.63173 3.15714
      vertex 0.400391 4 3
      vertex 0 3.62248 3.13339
    endloop
  endfacet
  facet normal -0.70693 0.641346 -0.298204
    outer loop
      vertex 0 3.64248 3.18026
      vertex 0.400391 4 3
      vertex 0 3.63173 3.15714
    endloop
  endfacet
  facet normal -0.706926 0.621009 -0.338531
    outer loop
      vertex 0 3.65468 3.20264
      vertex 0.400391 4 3
      vertex 0 3.64248 3.18026
    endloop
  endfacet
  facet normal -0.706926 0.598418 -0.377029
    outer loop
      vertex 0 3.66827 3.22421
      vertex 0.400391 4 3
      vertex 0 3.65468 3.20264
    endloop
  endfacet
  facet normal -0.706928 0.573037 -0.414585
    outer loop
      vertex 0 3.68321 3.24486
      vertex 0.400391 4 3
      vertex 0 3.66827 3.22421
    endloop
  endfacet
  facet normal -0.706927 0.545551 -0.450142
    outer loop
      vertex 0 3.69944 3.26453
      vertex 0.400391 4 3
      vertex 0 3.68321 3.24486
    endloop
  endfacet
  facet normal -0.706928 0.515827 -0.483917
    outer loop
      vertex 0 3.71688 3.28312
      vertex 0.400391 4 3
      vertex 0 3.69944 3.26453
    endloop
  endfacet
  facet normal -0.707108 0.499999 -0.499999
    outer loop
      vertex 0.400391 6 5
      vertex 0.400391 4 3
      vertex 0 5.03337 4.59961
    endloop
  endfacet
  facet normal -0.707108 0.499999 -0.499999
    outer loop
      vertex 0 5.03337 4.59961
      vertex 0.400391 4 3
      vertex 0 3.71688 3.28312
    endloop
  endfacet
  facet normal -0.707106 0 0.707108
    outer loop
      vertex 0.400391 0 5
      vertex 0 5.03337 4.59961
      vertex 0 0.400391 4.59961
    endloop
  endfacet
  facet normal -0.707106 0 0.707108
    outer loop
      vertex 0 5.03337 4.59961
      vertex 0.400391 0 5
      vertex 0.400391 6 5
    endloop
  endfacet
  facet normal -0.707107 -0.707107 0
    outer loop
      vertex 0.400391 0 0
      vertex 0 0.400391 4.59961
      vertex 0 0.400391 0.400391
    endloop
  endfacet
  facet normal -0.707107 -0.707107 0
    outer loop
      vertex 0 0.400391 4.59961
      vertex 0.400391 0 0
      vertex 0.400391 0 5
    endloop
  endfacet
  facet normal -0.707107 0 -0.707107
    outer loop
      vertex 0.400391 87 0
      vertex 0 0.400391 0.400391
      vertex 0 86.5996 0.400391
    endloop
  endfacet
  facet normal -0.707107 0 -0.707107
    outer loop
      vertex 0 0.400391 0.400391
      vertex 0.400391 87 0
      vertex 0.400391 0 0
    endloop
  endfacet
  facet normal -1 0 0
    outer loop
      vertex 0 83.3946 2.93233
      vertex 0 86.5996 4.59961
      vertex 0 86.5996 0.400391
    endloop
  endfacet
  facet normal -1 0 0
    outer loop
      vertex 0 86.5996 4.59961
      vertex 0 83.4 2.98301
      vertex 0 83.4003 3.0085
    endloop
  endfacet
  facet normal -1 0 0
    outer loop
      vertex 0 86.5996 4.59961
      vertex 0 83.3981 2.95758
      vertex 0 83.4 2.98301
    endloop
  endfacet
  facet normal -1 0 0
    outer loop
      vertex 0 86.5996 4.59961
      vertex 0 83.3946 2.93233
      vertex 0 83.3981 2.95758
    endloop
  endfacet
  facet normal -1 0 0
    outer loop
      vertex 0 86.5996 0.400391
      vertex 0 83.3895 2.90736
      vertex 0 83.3946 2.93233
    endloop
  endfacet
  facet normal -1 0 0
    outer loop
      vertex 0 86.5996 0.400391
      vertex 0 83.3828 2.88276
      vertex 0 83.3895 2.90736
    endloop
  endfacet
  facet normal -1 0 0
    outer loop
      vertex 0 86.5996 0.400391
      vertex 0 83.3746 2.85863
      vertex 0 83.3828 2.88276
    endloop
  endfacet
  facet normal -1 0 0
    outer loop
      vertex 0 86.5996 0.400391
      vertex 0 83.3648 2.83508
      vertex 0 83.3746 2.85863
    endloop
  endfacet
  facet normal -1 0 0
    outer loop
      vertex 0 86.5996 0.400391
      vertex 0 83.3536 2.81219
      vertex 0 83.3648 2.83508
    endloop
  endfacet
  facet normal -1 0 0
    outer loop
      vertex 0 86.5996 0.400391
      vertex 0 83.3409 2.79007
      vertex 0 83.3536 2.81219
    endloop
  endfacet
  facet normal -1 0 0
    outer loop
      vertex 0 86.5996 0.400391
      vertex 0 83.3269 2.7688
      vertex 0 83.3409 2.79007
    endloop
  endfacet
  facet normal -1 0 0
    outer loop
      vertex 0 86.5996 0.400391
      vertex 0 83.3115 2.74847
      vertex 0 83.3269 2.7688
    endloop
  endfacet
  facet normal -1 0 0
    outer loop
      vertex 0 86.5996 0.400391
      vertex 0 83.2949 2.72915
      vertex 0 83.3115 2.74847
    endloop
  endfacet
  facet normal -1 0 0
    outer loop
      vertex 0 86.5996 0.400391
      vertex 0 83.277 2.71093
      vertex 0 83.2949 2.72915
    endloop
  endfacet
  facet normal -1 0 0
    outer loop
      vertex 0 86.5996 0.400391
      vertex 0 83.2581 2.69389
      vertex 0 83.277 2.71093
    endloop
  endfacet
  facet normal -1 0 0
    outer loop
      vertex 0 86.5996 0.400391
      vertex 0 83.2381 2.67809
      vertex 0 83.2581 2.69389
    endloop
  endfacet
  facet normal -1 0 0
    outer loop
      vertex 0 86.5996 0.400391
      vertex 0 83.2171 2.66359
      vertex 0 83.2381 2.67809
    endloop
  endfacet
  facet normal -1 0 0
    outer loop
      vertex 0 86.5996 0.400391
      vertex 0 83.1953 2.65045
      vertex 0 83.2171 2.66359
    endloop
  endfacet
  facet normal -1 0 0
    outer loop
      vertex 0 86.5996 0.400391
      vertex 0 83.1726 2.63873
      vertex 0 83.1953 2.65045
    endloop
  endfacet
  facet normal -1 0 0
    outer loop
      vertex 0 86.5996 0.400391
      vertex 0 83.1493 2.62848
      vertex 0 83.1726 2.63873
    endloop
  endfacet
  facet normal -1 0 0
    outer loop
      vertex 0 86.5996 0.400391
      vertex 0 83.1253 2.61973
      vertex 0 83.1493 2.62848
    endloop
  endfacet
  facet normal -1 0 0
    outer loop
      vertex 0 86.5996 0.400391
      vertex 0 83.1009 2.61253
      vertex 0 83.1253 2.61973
    endloop
  endfacet
  facet normal -1 0 0
    outer loop
      vertex 0 86.5996 0.400391
      vertex 0 83.076 2.60689
      vertex 0 83.1009 2.61253
    endloop
  endfacet
  facet normal -1 0 0
    outer loop
      vertex 0 86.5996 0.400391
      vertex 0 83.0509 2.60285
      vertex 0 83.076 2.60689
    endloop
  endfacet
  facet normal -1 0 0
    outer loop
      vertex 0 86.5996 0.400391
      vertex 0 83.0255 2.60042
      vertex 0 83.0509 2.60285
    endloop
  endfacet
  facet normal -1 0 0
    outer loop
      vertex 0 86.5996 0.400391
      vertex 0 83 2.59961
      vertex 0 83.0255 2.60042
    endloop
  endfacet
  facet normal -1 0 0
    outer loop
      vertex 0 86.5996 0.400391
      vertex 0 4 2.59961
      vertex 0 83 2.59961
    endloop
  endfacet
  facet normal -1 0 0
    outer loop
      vertex 0 3.60186 2.95758
      vertex 0 0.400391 4.59961
      vertex 0 3.59997 2.98301
    endloop
  endfacet
  facet normal -1 0 0
    outer loop
      vertex 0 3.60537 2.93233
      vertex 0 0.400391 4.59961
      vertex 0 3.60186 2.95758
    endloop
  endfacet
  facet normal -1 0 0
    outer loop
      vertex 0 0.400391 4.59961
      vertex 0 3.60537 2.93233
      vertex 0 0.400391 0.400391
    endloop
  endfacet
  facet normal -1 -0 0
    outer loop
      vertex 0 3.61047 2.90736
      vertex 0 0.400391 0.400391
      vertex 0 3.60537 2.93233
    endloop
  endfacet
  facet normal -1 -0 0
    outer loop
      vertex 0 3.61716 2.88276
      vertex 0 0.400391 0.400391
      vertex 0 3.61047 2.90736
    endloop
  endfacet
  facet normal -1 -0 0
    outer loop
      vertex 0 3.6254 2.85863
      vertex 0 0.400391 0.400391
      vertex 0 3.61716 2.88276
    endloop
  endfacet
  facet normal -1 -0 0
    outer loop
      vertex 0 3.63515 2.83508
      vertex 0 0.400391 0.400391
      vertex 0 3.6254 2.85863
    endloop
  endfacet
  facet normal -1 -0 0
    outer loop
      vertex 0 3.64639 2.81219
      vertex 0 0.400391 0.400391
      vertex 0 3.63515 2.83508
    endloop
  endfacet
  facet normal -1 -0 0
    outer loop
      vertex 0 3.65906 2.79007
      vertex 0 0.400391 0.400391
      vertex 0 3.64639 2.81219
    endloop
  endfacet
  facet normal -1 -0 0
    outer loop
      vertex 0 3.67311 2.7688
      vertex 0 0.400391 0.400391
      vertex 0 3.65906 2.79007
    endloop
  endfacet
  facet normal -1 -0 0
    outer loop
      vertex 0 3.68848 2.74847
      vertex 0 0.400391 0.400391
      vertex 0 3.67311 2.7688
    endloop
  endfacet
  facet normal -1 -0 0
    outer loop
      vertex 0 3.70512 2.72915
      vertex 0 0.400391 0.400391
      vertex 0 3.68848 2.74847
    endloop
  endfacet
  facet normal -1 -0 0
    outer loop
      vertex 0 3.72295 2.71093
      vertex 0 0.400391 0.400391
      vertex 0 3.70512 2.72915
    endloop
  endfacet
  facet normal -1 -0 0
    outer loop
      vertex 0 3.74191 2.69389
      vertex 0 0.400391 0.400391
      vertex 0 3.72295 2.71093
    endloop
  endfacet
  facet normal -1 -0 0
    outer loop
      vertex 0 3.76191 2.67809
      vertex 0 0.400391 0.400391
      vertex 0 3.74191 2.69389
    endloop
  endfacet
  facet normal -1 -0 0
    outer loop
      vertex 0 3.78288 2.66359
      vertex 0 0.400391 0.400391
      vertex 0 3.76191 2.67809
    endloop
  endfacet
  facet normal -1 -0 0
    outer loop
      vertex 0 3.80473 2.65045
      vertex 0 0.400391 0.400391
      vertex 0 3.78288 2.66359
    endloop
  endfacet
  facet normal -1 -0 0
    outer loop
      vertex 0 3.82737 2.63873
      vertex 0 0.400391 0.400391
      vertex 0 3.80473 2.65045
    endloop
  endfacet
  facet normal -1 -0 0
    outer loop
      vertex 0 3.85071 2.62848
      vertex 0 0.400391 0.400391
      vertex 0 3.82737 2.63873
    endloop
  endfacet
  facet normal -1 -0 0
    outer loop
      vertex 0 3.87466 2.61973
      vertex 0 0.400391 0.400391
      vertex 0 3.85071 2.62848
    endloop
  endfacet
  facet normal -1 -0 0
    outer loop
      vertex 0 3.89911 2.61253
      vertex 0 0.400391 0.400391
      vertex 0 3.87466 2.61973
    endloop
  endfacet
  facet normal -1 -0 0
    outer loop
      vertex 0 3.92397 2.60689
      vertex 0 0.400391 0.400391
      vertex 0 3.89911 2.61253
    endloop
  endfacet
  facet normal -1 -0 0
    outer loop
      vertex 0 3.94914 2.60285
      vertex 0 0.400391 0.400391
      vertex 0 3.92397 2.60689
    endloop
  endfacet
  facet normal -1 -0 0
    outer loop
      vertex 0 3.97452 2.60042
      vertex 0 0.400391 0.400391
      vertex 0 3.94914 2.60285
    endloop
  endfacet
  facet normal -1 -0 0
    outer loop
      vertex 0 4 2.59961
      vertex 0 0.400391 0.400391
      vertex 0 3.97452 2.60042
    endloop
  endfacet
  facet normal -1 0 0
    outer loop
      vertex 0 0.400391 0.400391
      vertex 0 4 2.59961
      vertex 0 86.5996 0.400391
    endloop
  endfacet
  facet normal -1 0 0
    outer loop
      vertex 0 83.3989 3.03395
      vertex 0 86.5996 4.59961
      vertex 0 83.4003 3.0085
    endloop
  endfacet
  facet normal -1 0 0
    outer loop
      vertex 0 83.396 3.05927
      vertex 0 86.5996 4.59961
      vertex 0 83.3989 3.03395
    endloop
  endfacet
  facet normal -1 0 0
    outer loop
      vertex 0 83.3914 3.08435
      vertex 0 86.5996 4.59961
      vertex 0 83.396 3.05927
    endloop
  endfacet
  facet normal -1 0 0
    outer loop
      vertex 0 83.3852 3.10909
      vertex 0 86.5996 4.59961
      vertex 0 83.3914 3.08435
    endloop
  endfacet
  facet normal -1 0 0
    outer loop
      vertex 0 83.3775 3.13339
      vertex 0 86.5996 4.59961
      vertex 0 83.3852 3.10909
    endloop
  endfacet
  facet normal -1 0 0
    outer loop
      vertex 0 83.3683 3.15714
      vertex 0 86.5996 4.59961
      vertex 0 83.3775 3.13339
    endloop
  endfacet
  facet normal -1 0 0
    outer loop
      vertex 0 83.3575 3.18026
      vertex 0 86.5996 4.59961
      vertex 0 83.3683 3.15714
    endloop
  endfacet
  facet normal -1 0 0
    outer loop
      vertex 0 83.3453 3.20264
      vertex 0 86.5996 4.59961
      vertex 0 83.3575 3.18026
    endloop
  endfacet
  facet normal -1 0 0
    outer loop
      vertex 0 83.3317 3.22421
      vertex 0 86.5996 4.59961
      vertex 0 83.3453 3.20264
    endloop
  endfacet
  facet normal -1 0 0
    outer loop
      vertex 0 83.3168 3.24486
      vertex 0 86.5996 4.59961
      vertex 0 83.3317 3.22421
    endloop
  endfacet
  facet normal -1 0 0
    outer loop
      vertex 0 83.3006 3.26453
      vertex 0 86.5996 4.59961
      vertex 0 83.3168 3.24486
    endloop
  endfacet
  facet normal -1 0 0
    outer loop
      vertex 0 83.2831 3.28312
      vertex 0 86.5996 4.59961
      vertex 0 83.3006 3.26453
    endloop
  endfacet
  facet normal -1 -0 0
    outer loop
      vertex 0 86.5996 4.59961
      vertex 0 83.2831 3.28312
      vertex 0 81.9666 4.59961
    endloop
  endfacet
  facet normal -1 0 0
    outer loop
      vertex 0 3.59997 2.98301
      vertex 0 0.400391 4.59961
      vertex 0 3.5997 3.0085
    endloop
  endfacet
  facet normal -1 0 0
    outer loop
      vertex 0 3.5997 3.0085
      vertex 0 0.400391 4.59961
      vertex 0 3.60105 3.03395
    endloop
  endfacet
  facet normal -1 0 0
    outer loop
      vertex 0 3.60105 3.03395
      vertex 0 0.400391 4.59961
      vertex 0 3.60402 3.05927
    endloop
  endfacet
  facet normal -1 0 0
    outer loop
      vertex 0 3.60402 3.05927
      vertex 0 0.400391 4.59961
      vertex 0 3.6086 3.08435
    endloop
  endfacet
  facet normal -1 0 0
    outer loop
      vertex 0 3.6086 3.08435
      vertex 0 0.400391 4.59961
      vertex 0 3.61476 3.10909
    endloop
  endfacet
  facet normal -1 0 0
    outer loop
      vertex 0 3.61476 3.10909
      vertex 0 0.400391 4.59961
      vertex 0 3.62248 3.13339
    endloop
  endfacet
  facet normal -1 0 0
    outer loop
      vertex 0 3.62248 3.13339
      vertex 0 0.400391 4.59961
      vertex 0 3.63173 3.15714
    endloop
  endfacet
  facet normal -1 0 0
    outer loop
      vertex 0 3.63173 3.15714
      vertex 0 0.400391 4.59961
      vertex 0 3.64248 3.18026
    endloop
  endfacet
  facet normal -1 0 0
    outer loop
      vertex 0 3.64248 3.18026
      vertex 0 0.400391 4.59961
      vertex 0 3.65468 3.20264
    endloop
  endfacet
  facet normal -1 0 0
    outer loop
      vertex 0 3.65468 3.20264
      vertex 0 0.400391 4.59961
      vertex 0 3.66827 3.22421
    endloop
  endfacet
  facet normal -1 0 0
    outer loop
      vertex 0 3.66827 3.22421
      vertex 0 0.400391 4.59961
      vertex 0 3.68321 3.24486
    endloop
  endfacet
  facet normal -1 0 0
    outer loop
      vertex 0 3.68321 3.24486
      vertex 0 0.400391 4.59961
      vertex 0 3.69944 3.26453
    endloop
  endfacet
  facet normal -1 0 0
    outer loop
      vertex 0 3.69944 3.26453
      vertex 0 0.400391 4.59961
      vertex 0 3.71688 3.28312
    endloop
  endfacet
  facet normal -1 0 0
    outer loop
      vertex 0 3.71688 3.28312
      vertex 0 0.400391 4.59961
      vertex 0 5.03337 4.59961
    endloop
  endfacet
  facet normal 0.70746 0.706753 0
    outer loop
      vertex 162 86.5996 4.59961
      vertex 161.6 87 0
      vertex 161.6 87 5
    endloop
  endfacet
  facet normal 0.70746 0.706753 0
    outer loop
      vertex 161.6 87 0
      vertex 162 86.5996 4.59961
      vertex 162 86.5996 0.400391
    endloop
  endfacet
  facet normal 0.707451 0 0.706762
    outer loop
      vertex 161.6 87 5
      vertex 162 81.9666 4.59961
      vertex 162 86.5996 4.59961
    endloop
  endfacet
  facet normal 0.707451 0 0.706762
    outer loop
      vertex 162 81.9666 4.59961
      vertex 161.6 87 5
      vertex 161.6 81 5
    endloop
  endfacet
  facet normal 0.707441 -0.499762 -0.499766
    outer loop
      vertex 162 83.2831 3.28312
      vertex 162 81.9666 4.59961
      vertex 161.6 83 3
    endloop
  endfacet
  facet normal 0.707434 -0.499768 -0.499768
    outer loop
      vertex 161.6 83 3
      vertex 162 81.9666 4.59961
      vertex 161.6 81 5
    endloop
  endfacet
  facet normal 0.707279 -0.514741 -0.48456
    outer loop
      vertex 162 83.3006 3.26453
      vertex 162 83.2831 3.28312
      vertex 161.6 83 3
    endloop
  endfacet
  facet normal 0.707289 -0.54568 -0.449416
    outer loop
      vertex 162 83.3168 3.24486
      vertex 162 83.3006 3.26453
      vertex 161.6 83 3
    endloop
  endfacet
  facet normal 0.707266 -0.57329 -0.413657
    outer loop
      vertex 162 83.3317 3.22421
      vertex 162 83.3168 3.24486
      vertex 161.6 83 3
    endloop
  endfacet
  facet normal 0.707253 -0.598017 -0.377053
    outer loop
      vertex 162 83.3453 3.20264
      vertex 162 83.3317 3.22421
      vertex 161.6 83 3
    endloop
  endfacet
  facet normal 0.707256 -0.62072 -0.338373
    outer loop
      vertex 162 83.3575 3.18026
      vertex 162 83.3453 3.20264
      vertex 161.6 83 3
    endloop
  endfacet
  facet normal 0.707279 -0.640499 -0.299195
    outer loop
      vertex 162 83.3683 3.15714
      vertex 162 83.3575 3.18026
      vertex 161.6 83 3
    endloop
  endfacet
  facet normal 0.707279 -0.659205 -0.255355
    outer loop
      vertex 162 83.3775 3.13339
      vertex 162 83.3683 3.15714
      vertex 161.6 83 3
    endloop
  endfacet
  facet normal 0.707247 -0.673941 -0.213553
    outer loop
      vertex 162 83.3852 3.10909
      vertex 162 83.3775 3.13339
      vertex 161.6 83 3
    endloop
  endfacet
  facet normal 0.707252 -0.685756 -0.171855
    outer loop
      vertex 162 83.3914 3.08435
      vertex 162 83.3852 3.10909
      vertex 161.6 83 3
    endloop
  endfacet
  facet normal 0.707279 -0.695335 -0.127534
    outer loop
      vertex 162 83.396 3.05927
      vertex 162 83.3914 3.08435
      vertex 161.6 83 3
    endloop
  endfacet
  facet normal 0.707259 -0.702363 -0.0804444
    outer loop
      vertex 162 83.3989 3.03395
      vertex 162 83.396 3.05927
      vertex 161.6 83 3
    endloop
  endfacet
  facet normal 0.70725 -0.705896 -0.0388312
    outer loop
      vertex 162 83.4003 3.0085
      vertex 162 83.3989 3.03395
      vertex 161.6 83 3
    endloop
  endfacet
  facet normal 0.707259 -0.706906 0.0083198
    outer loop
      vertex 162 83.4 2.98301
      vertex 162 83.4003 3.0085
      vertex 161.6 83 3
    endloop
  endfacet
  facet normal 0.707243 -0.705006 0.0526744
    outer loop
      vertex 162 83.3981 2.95758
      vertex 162 83.4 2.98301
      vertex 161.6 83 3
    endloop
  endfacet
  facet normal 0.707243 -0.700275 0.0970678
    outer loop
      vertex 162 83.3946 2.93233
      vertex 162 83.3981 2.95758
      vertex 161.6 83 3
    endloop
  endfacet
  facet normal 0.707248 -0.692665 0.141474
    outer loop
      vertex 162 83.3895 2.90736
      vertex 162 83.3946 2.93233
      vertex 161.6 83 3
    endloop
  endfacet
  facet normal 0.707244 -0.682123 0.185781
    outer loop
      vertex 162 83.3828 2.88276
      vertex 162 83.3895 2.90736
      vertex 161.6 83 3
    endloop
  endfacet
  facet normal 0.707254 -0.669366 0.227468
    outer loop
      vertex 162 83.3746 2.85863
      vertex 162 83.3828 2.88276
      vertex 161.6 83 3
    endloop
  endfacet
  facet normal 0.707252 -0.652703 0.271613
    outer loop
      vertex 162 83.3648 2.83508
      vertex 162 83.3746 2.85863
      vertex 161.6 83 3
    endloop
  endfacet
  facet normal 0.707249 -0.635024 0.310715
    outer loop
      vertex 162 83.3536 2.81219
      vertex 162 83.3648 2.83508
      vertex 161.6 83 3
    endloop
  endfacet
  facet normal 0.707252 -0.613097 0.352004
    outer loop
      vertex 162 83.3409 2.79007
      vertex 162 83.3536 2.81219
      vertex 161.6 83 3
    endloop
  endfacet
  facet normal 0.707259 -0.590518 0.388681
    outer loop
      vertex 162 83.3269 2.7688
      vertex 162 83.3409 2.79007
      vertex 161.6 83 3
    endloop
  endfacet
  facet normal 0.707268 -0.563521 0.426868
    outer loop
      vertex 162 83.3115 2.74847
      vertex 162 83.3269 2.7688
      vertex 161.6 83 3
    endloop
  endfacet
  facet normal 0.707273 -0.536201 0.460711
    outer loop
      vertex 162 83.2949 2.72915
      vertex 162 83.3115 2.74847
      vertex 161.6 83 3
    endloop
  endfacet
  facet normal 0.707266 -0.504296 0.495439
    outer loop
      vertex 162 83.277 2.71093
      vertex 162 83.2949 2.72915
      vertex 161.6 83 3
    endloop
  endfacet
  facet normal 0.707264 -0.473384 0.525057
    outer loop
      vertex 162 83.2581 2.69389
      vertex 162 83.277 2.71093
      vertex 161.6 83 3
    endloop
  endfacet
  facet normal 0.707279 -0.438228 0.554719
    outer loop
      vertex 162 83.2381 2.67809
      vertex 162 83.2581 2.69389
      vertex 161.6 83 3
    endloop
  endfacet
  facet normal 0.70727 -0.401679 0.581741
    outer loop
      vertex 162 83.2171 2.66359
      vertex 162 83.2381 2.67809
      vertex 161.6 83 3
    endloop
  endfacet
  facet normal 0.707276 -0.364941 0.605457
    outer loop
      vertex 162 83.1953 2.65045
      vertex 162 83.2171 2.66359
      vertex 161.6 83 3
    endloop
  endfacet
  facet normal 0.707277 -0.324316 0.628155
    outer loop
      vertex 162 83.1726 2.63873
      vertex 162 83.1953 2.65045
      vertex 161.6 83 3
    endloop
  endfacet
  facet normal 0.707273 -0.284666 0.647094
    outer loop
      vertex 162 83.1493 2.62848
      vertex 162 83.1726 2.63873
      vertex 161.6 83 3
    endloop
  endfacet
  facet normal 0.707271 -0.242148 0.664178
    outer loop
      vertex 162 83.1253 2.61973
      vertex 162 83.1493 2.62848
      vertex 161.6 83 3
    endloop
  endfacet
  facet normal 0.70727 -0.200077 0.67804
    outer loop
      vertex 162 83.1009 2.61253
      vertex 162 83.1253 2.61973
      vertex 161.6 83 3
    endloop
  endfacet
  facet normal 0.707272 -0.15617 0.689476
    outer loop
      vertex 162 83.076 2.60689
      vertex 162 83.1009 2.61253
      vertex 161.6 83 3
    endloop
  endfacet
  facet normal 0.707276 -0.11234 0.697954
    outer loop
      vertex 162 83.0509 2.60285
      vertex 162 83.076 2.60689
      vertex 161.6 83 3
    endloop
  endfacet
  facet normal 0.707277 -0.0673247 0.703724
    outer loop
      vertex 162 83.0255 2.60042
      vertex 162 83.0509 2.60285
      vertex 161.6 83 3
    endloop
  endfacet
  facet normal 0.707273 -0.0224444 0.706584
    outer loop
      vertex 162 83 2.59961
      vertex 162 83.0255 2.60042
      vertex 161.6 83 3
    endloop
  endfacet
  facet normal 0.707451 -0 0.706762
    outer loop
      vertex 161.6 4 3
      vertex 162 83 2.59961
      vertex 161.6 83 3
    endloop
  endfacet
  facet normal 0.707451 0 0.706762
    outer loop
      vertex 162 83 2.59961
      vertex 161.6 4 3
      vertex 162 4 2.59961
    endloop
  endfacet
  facet normal 0.707273 0.022462 0.706584
    outer loop
      vertex 162 3.97452 2.60042
      vertex 162 4 2.59961
      vertex 161.6 4 3
    endloop
  endfacet
  facet normal 0.707274 0.0673776 0.703721
    outer loop
      vertex 162 3.94914 2.60285
      vertex 162 3.97452 2.60042
      vertex 161.6 4 3
    endloop
  endfacet
  facet normal 0.707276 0.112036 0.698004
    outer loop
      vertex 162 3.92397 2.60689
      vertex 162 3.94914 2.60285
      vertex 161.6 4 3
    endloop
  endfacet
  facet normal 0.707274 0.156409 0.68942
    outer loop
      vertex 162 3.89911 2.61253
      vertex 162 3.92397 2.60689
      vertex 161.6 4 3
    endloop
  endfacet
  facet normal 0.707274 0.1997 0.678147
    outer loop
      vertex 162 3.87466 2.61973
      vertex 162 3.89911 2.61253
      vertex 161.6 4 3
    endloop
  endfacet
  facet normal 0.707275 0.242593 0.664011
    outer loop
      vertex 162 3.85071 2.62848
      vertex 162 3.87466 2.61973
      vertex 161.6 4 3
    endloop
  endfacet
  facet normal 0.707276 0.284256 0.647271
    outer loop
      vertex 162 3.82737 2.63873
      vertex 162 3.85071 2.62848
      vertex 161.6 4 3
    endloop
  endfacet
  facet normal 0.707277 0.324994 0.627804
    outer loop
      vertex 162 3.80473 2.65045
      vertex 162 3.82737 2.63873
      vertex 161.6 4 3
    endloop
  endfacet
  facet normal 0.707274 0.364329 0.605828
    outer loop
      vertex 162 3.78288 2.66359
      vertex 162 3.80473 2.65045
      vertex 161.6 4 3
    endloop
  endfacet
  facet normal 0.707273 0.402066 0.581471
    outer loop
      vertex 162 3.76191 2.67809
      vertex 162 3.78288 2.66359
      vertex 161.6 4 3
    endloop
  endfacet
  facet normal 0.707273 0.438231 0.554723
    outer loop
      vertex 162 3.74191 2.69389
      vertex 162 3.76191 2.67809
      vertex 161.6 4 3
    endloop
  endfacet
  facet normal 0.707276 0.472548 0.525793
    outer loop
      vertex 162 3.72295 2.71093
      vertex 162 3.74191 2.69389
      vertex 161.6 4 3
    endloop
  endfacet
  facet normal 0.707276 0.505258 0.494443
    outer loop
      vertex 162 3.70512 2.72915
      vertex 162 3.72295 2.71093
      vertex 161.6 4 3
    endloop
  endfacet
  facet normal 0.707273 0.535652 0.461348
    outer loop
      vertex 162 3.68848 2.74847
      vertex 162 3.70512 2.72915
      vertex 161.6 4 3
    endloop
  endfacet
  facet normal 0.707271 0.563919 0.426337
    outer loop
      vertex 162 3.67311 2.7688
      vertex 162 3.68848 2.74847
      vertex 161.6 4 3
    endloop
  endfacet
  facet normal 0.70727 0.589871 0.389642
    outer loop
      vertex 162 3.65906 2.79007
      vertex 162 3.67311 2.7688
      vertex 161.6 4 3
    endloop
  endfacet
  facet normal 0.707272 0.613439 0.351368
    outer loop
      vertex 162 3.64639 2.81219
      vertex 162 3.65906 2.79007
      vertex 161.6 4 3
    endloop
  endfacet
  facet normal 0.707273 0.634563 0.311599
    outer loop
      vertex 162 3.63515 2.83508
      vertex 162 3.64639 2.81219
      vertex 161.6 4 3
    endloop
  endfacet
  facet normal 0.707272 0.653175 0.270423
    outer loop
      vertex 162 3.6254 2.85863
      vertex 162 3.63515 2.83508
      vertex 161.6 4 3
    endloop
  endfacet
  facet normal 0.707271 0.669011 0.228456
    outer loop
      vertex 162 3.61716 2.88276
      vertex 162 3.6254 2.85863
      vertex 161.6 4 3
    endloop
  endfacet
  facet normal 0.707274 0.682164 0.185515
    outer loop
      vertex 162 3.61047 2.90736
      vertex 162 3.61716 2.88276
      vertex 161.6 4 3
    endloop
  endfacet
  facet normal 0.707274 0.69264 0.141468
    outer loop
      vertex 162 3.60537 2.93233
      vertex 162 3.61047 2.90736
      vertex 161.6 4 3
    endloop
  endfacet
  facet normal 0.707274 0.700207 0.0973357
    outer loop
      vertex 162 3.60186 2.95758
      vertex 162 3.60537 2.93233
      vertex 161.6 4 3
    endloop
  endfacet
  facet normal 0.707274 0.704995 0.0523964
    outer loop
      vertex 162 3.59997 2.98301
      vertex 162 3.60186 2.95758
      vertex 161.6 4 3
    endloop
  endfacet
  facet normal 0.707272 0.706901 0.00748777
    outer loop
      vertex 162 3.5997 3.0085
      vertex 162 3.59997 2.98301
      vertex 161.6 4 3
    endloop
  endfacet
  facet normal 0.707273 0.705948 -0.0374471
    outer loop
      vertex 162 3.60105 3.03395
      vertex 162 3.5997 3.0085
      vertex 161.6 4 3
    endloop
  endfacet
  facet normal 0.707273 0.702126 -0.0823584
    outer loop
      vertex 162 3.60402 3.05927
      vertex 162 3.60105 3.03395
      vertex 161.6 4 3
    endloop
  endfacet
  facet normal 0.707271 0.695442 -0.126999
    outer loop
      vertex 162 3.6086 3.08435
      vertex 162 3.60402 3.05927
      vertex 161.6 4 3
    endloop
  endfacet
  facet normal 0.707269 0.685999 -0.170807
    outer loop
      vertex 162 3.61476 3.10909
      vertex 162 3.6086 3.08435
      vertex 161.6 4 3
    endloop
  endfacet
  facet normal 0.707272 0.673757 -0.21405
    outer loop
      vertex 162 3.62248 3.13339
      vertex 162 3.61476 3.10909
      vertex 161.6 4 3
    endloop
  endfacet
  facet normal 0.707275 0.65874 -0.256562
    outer loop
      vertex 162 3.63173 3.15714
      vertex 162 3.62248 3.13339
      vertex 161.6 4 3
    endloop
  endfacet
  facet normal 0.707275 0.641033 -0.298058
    outer loop
      vertex 162 3.64248 3.18026
      vertex 162 3.63173 3.15714
      vertex 161.6 4 3
    endloop
  endfacet
  facet normal 0.707271 0.620706 -0.338365
    outer loop
      vertex 162 3.65468 3.20264
      vertex 162 3.64248 3.18026
      vertex 161.6 4 3
    endloop
  endfacet
  facet normal 0.707272 0.598126 -0.376844
    outer loop
      vertex 162 3.66827 3.22421
      vertex 162 3.65468 3.20264
      vertex 161.6 4 3
    endloop
  endfacet
  facet normal 0.707274 0.572757 -0.414382
    outer loop
      vertex 162 3.68321 3.24486
      vertex 162 3.66827 3.22421
      vertex 161.6 4 3
    endloop
  endfacet
  facet normal 0.707272 0.545285 -0.449923
    outer loop
      vertex 162 3.69944 3.26453
      vertex 162 3.68321 3.24486
      vertex 161.6 4 3
    endloop
  endfacet
  facet normal 0.707273 0.515575 -0.483681
    outer loop
      vertex 162 3.71688 3.28312
      vertex 162 3.69944 3.26453
      vertex 161.6 4 3
    endloop
  endfacet
  facet normal 0.707453 0.499755 -0.499755
    outer loop
      vertex 161.6 6 5
      vertex 162 5.03337 4.59961
      vertex 161.6 4 3
    endloop
  endfacet
  facet normal 0.707453 0.499755 -0.499755
    outer loop
      vertex 162 5.03337 4.59961
      vertex 162 3.71688 3.28312
      vertex 161.6 4 3
    endloop
  endfacet
  facet normal 0.707451 -0 0.706762
    outer loop
      vertex 161.6 0 5
      vertex 162 5.03337 4.59961
      vertex 161.6 6 5
    endloop
  endfacet
  facet normal 0.707451 0 0.706762
    outer loop
      vertex 162 5.03337 4.59961
      vertex 161.6 0 5
      vertex 162 0.400391 4.59961
    endloop
  endfacet
  facet normal 0.707452 -0.706761 0
    outer loop
      vertex 161.6 0 5
      vertex 162 0.400391 0.400391
      vertex 162 0.400391 4.59961
    endloop
  endfacet
  facet normal 0.707452 -0.706761 0
    outer loop
      vertex 162 0.400391 0.400391
      vertex 161.6 0 5
      vertex 161.6 0 0
    endloop
  endfacet
  facet normal 0.707452 0 -0.706761
    outer loop
      vertex 162 0.400391 0.400391
      vertex 161.6 87 0
      vertex 162 86.5996 0.400391
    endloop
  endfacet
  facet normal 0.707452 0 -0.706761
    outer loop
      vertex 161.6 87 0
      vertex 162 0.400391 0.400391
      vertex 161.6 0 0
    endloop
  endfacet
  facet normal 1 0 0
    outer loop
      vertex 162 3.60105 3.03395
      vertex 162 0.400391 4.59961
      vertex 162 3.5997 3.0085
    endloop
  endfacet
  facet normal 1 0 0
    outer loop
      vertex 162 3.60402 3.05927
      vertex 162 0.400391 4.59961
      vertex 162 3.60105 3.03395
    endloop
  endfacet
  facet normal 1 0 0
    outer loop
      vertex 162 3.6086 3.08435
      vertex 162 0.400391 4.59961
      vertex 162 3.60402 3.05927
    endloop
  endfacet
  facet normal 1 0 0
    outer loop
      vertex 162 3.61476 3.10909
      vertex 162 0.400391 4.59961
      vertex 162 3.6086 3.08435
    endloop
  endfacet
  facet normal 1 0 0
    outer loop
      vertex 162 3.62248 3.13339
      vertex 162 0.400391 4.59961
      vertex 162 3.61476 3.10909
    endloop
  endfacet
  facet normal 1 0 0
    outer loop
      vertex 162 3.63173 3.15714
      vertex 162 0.400391 4.59961
      vertex 162 3.62248 3.13339
    endloop
  endfacet
  facet normal 1 0 0
    outer loop
      vertex 162 3.64248 3.18026
      vertex 162 0.400391 4.59961
      vertex 162 3.63173 3.15714
    endloop
  endfacet
  facet normal 1 0 0
    outer loop
      vertex 162 3.65468 3.20264
      vertex 162 0.400391 4.59961
      vertex 162 3.64248 3.18026
    endloop
  endfacet
  facet normal 1 0 0
    outer loop
      vertex 162 3.66827 3.22421
      vertex 162 0.400391 4.59961
      vertex 162 3.65468 3.20264
    endloop
  endfacet
  facet normal 1 0 0
    outer loop
      vertex 162 3.68321 3.24486
      vertex 162 0.400391 4.59961
      vertex 162 3.66827 3.22421
    endloop
  endfacet
  facet normal 1 0 0
    outer loop
      vertex 162 3.69944 3.26453
      vertex 162 0.400391 4.59961
      vertex 162 3.68321 3.24486
    endloop
  endfacet
  facet normal 1 0 0
    outer loop
      vertex 162 3.71688 3.28312
      vertex 162 0.400391 4.59961
      vertex 162 3.69944 3.26453
    endloop
  endfacet
  facet normal 1 -0 0
    outer loop
      vertex 162 0.400391 4.59961
      vertex 162 3.71688 3.28312
      vertex 162 5.03337 4.59961
    endloop
  endfacet
  facet normal 1 0 0
    outer loop
      vertex 162 83.4 2.98301
      vertex 162 86.5996 4.59961
      vertex 162 83.4003 3.0085
    endloop
  endfacet
  facet normal 1 0 0
    outer loop
      vertex 162 86.5996 4.59961
      vertex 162 83.3989 3.03395
      vertex 162 83.4003 3.0085
    endloop
  endfacet
  facet normal 1 0 0
    outer loop
      vertex 162 86.5996 4.59961
      vertex 162 83.396 3.05927
      vertex 162 83.3989 3.03395
    endloop
  endfacet
  facet normal 1 0 0
    outer loop
      vertex 162 86.5996 4.59961
      vertex 162 83.3914 3.08435
      vertex 162 83.396 3.05927
    endloop
  endfacet
  facet normal 1 0 0
    outer loop
      vertex 162 86.5996 4.59961
      vertex 162 83.3852 3.10909
      vertex 162 83.3914 3.08435
    endloop
  endfacet
  facet normal 1 0 0
    outer loop
      vertex 162 86.5996 4.59961
      vertex 162 83.3775 3.13339
      vertex 162 83.3852 3.10909
    endloop
  endfacet
  facet normal 1 0 0
    outer loop
      vertex 162 86.5996 4.59961
      vertex 162 83.3683 3.15714
      vertex 162 83.3775 3.13339
    endloop
  endfacet
  facet normal 1 0 0
    outer loop
      vertex 162 86.5996 4.59961
      vertex 162 83.3575 3.18026
      vertex 162 83.3683 3.15714
    endloop
  endfacet
  facet normal 1 0 0
    outer loop
      vertex 162 86.5996 4.59961
      vertex 162 83.3453 3.20264
      vertex 162 83.3575 3.18026
    endloop
  endfacet
  facet normal 1 0 0
    outer loop
      vertex 162 86.5996 4.59961
      vertex 162 83.3317 3.22421
      vertex 162 83.3453 3.20264
    endloop
  endfacet
  facet normal 1 0 0
    outer loop
      vertex 162 86.5996 4.59961
      vertex 162 83.3168 3.24486
      vertex 162 83.3317 3.22421
    endloop
  endfacet
  facet normal 1 0 0
    outer loop
      vertex 162 86.5996 4.59961
      vertex 162 83.3006 3.26453
      vertex 162 83.3168 3.24486
    endloop
  endfacet
  facet normal 1 0 0
    outer loop
      vertex 162 86.5996 4.59961
      vertex 162 83.2831 3.28312
      vertex 162 83.3006 3.26453
    endloop
  endfacet
  facet normal 1 0 -0
    outer loop
      vertex 162 83.2831 3.28312
      vertex 162 86.5996 4.59961
      vertex 162 81.9666 4.59961
    endloop
  endfacet
  facet normal 1 0 0
    outer loop
      vertex 162 83.3981 2.95758
      vertex 162 86.5996 4.59961
      vertex 162 83.4 2.98301
    endloop
  endfacet
  facet normal 1 0 0
    outer loop
      vertex 162 83.3946 2.93233
      vertex 162 86.5996 4.59961
      vertex 162 83.3981 2.95758
    endloop
  endfacet
  facet normal 1 0 0
    outer loop
      vertex 162 86.5996 4.59961
      vertex 162 83.3946 2.93233
      vertex 162 86.5996 0.400391
    endloop
  endfacet
  facet normal 1 -0 0
    outer loop
      vertex 162 83.3895 2.90736
      vertex 162 86.5996 0.400391
      vertex 162 83.3946 2.93233
    endloop
  endfacet
  facet normal 1 -0 0
    outer loop
      vertex 162 83.3828 2.88276
      vertex 162 86.5996 0.400391
      vertex 162 83.3895 2.90736
    endloop
  endfacet
  facet normal 1 -0 0
    outer loop
      vertex 162 83.3746 2.85863
      vertex 162 86.5996 0.400391
      vertex 162 83.3828 2.88276
    endloop
  endfacet
  facet normal 1 -0 0
    outer loop
      vertex 162 83.3648 2.83508
      vertex 162 86.5996 0.400391
      vertex 162 83.3746 2.85863
    endloop
  endfacet
  facet normal 1 -0 0
    outer loop
      vertex 162 83.3536 2.81219
      vertex 162 86.5996 0.400391
      vertex 162 83.3648 2.83508
    endloop
  endfacet
  facet normal 1 -0 0
    outer loop
      vertex 162 83.3409 2.79007
      vertex 162 86.5996 0.400391
      vertex 162 83.3536 2.81219
    endloop
  endfacet
  facet normal 1 -0 0
    outer loop
      vertex 162 83.3269 2.7688
      vertex 162 86.5996 0.400391
      vertex 162 83.3409 2.79007
    endloop
  endfacet
  facet normal 1 -0 0
    outer loop
      vertex 162 83.3115 2.74847
      vertex 162 86.5996 0.400391
      vertex 162 83.3269 2.7688
    endloop
  endfacet
  facet normal 1 -0 0
    outer loop
      vertex 162 83.2949 2.72915
      vertex 162 86.5996 0.400391
      vertex 162 83.3115 2.74847
    endloop
  endfacet
  facet normal 1 -0 0
    outer loop
      vertex 162 83.277 2.71093
      vertex 162 86.5996 0.400391
      vertex 162 83.2949 2.72915
    endloop
  endfacet
  facet normal 1 -0 0
    outer loop
      vertex 162 83.2581 2.69389
      vertex 162 86.5996 0.400391
      vertex 162 83.277 2.71093
    endloop
  endfacet
  facet normal 1 -0 0
    outer loop
      vertex 162 83.2381 2.67809
      vertex 162 86.5996 0.400391
      vertex 162 83.2581 2.69389
    endloop
  endfacet
  facet normal 1 -0 0
    outer loop
      vertex 162 83.2171 2.66359
      vertex 162 86.5996 0.400391
      vertex 162 83.2381 2.67809
    endloop
  endfacet
  facet normal 1 -0 0
    outer loop
      vertex 162 83.1953 2.65045
      vertex 162 86.5996 0.400391
      vertex 162 83.2171 2.66359
    endloop
  endfacet
  facet normal 1 -0 0
    outer loop
      vertex 162 83.1726 2.63873
      vertex 162 86.5996 0.400391
      vertex 162 83.1953 2.65045
    endloop
  endfacet
  facet normal 1 -0 0
    outer loop
      vertex 162 83.1493 2.62848
      vertex 162 86.5996 0.400391
      vertex 162 83.1726 2.63873
    endloop
  endfacet
  facet normal 1 -0 0
    outer loop
      vertex 162 83.1253 2.61973
      vertex 162 86.5996 0.400391
      vertex 162 83.1493 2.62848
    endloop
  endfacet
  facet normal 1 -0 0
    outer loop
      vertex 162 83.1009 2.61253
      vertex 162 86.5996 0.400391
      vertex 162 83.1253 2.61973
    endloop
  endfacet
  facet normal 1 -0 0
    outer loop
      vertex 162 83.076 2.60689
      vertex 162 86.5996 0.400391
      vertex 162 83.1009 2.61253
    endloop
  endfacet
  facet normal 1 -0 0
    outer loop
      vertex 162 83.0509 2.60285
      vertex 162 86.5996 0.400391
      vertex 162 83.076 2.60689
    endloop
  endfacet
  facet normal 1 -0 0
    outer loop
      vertex 162 83.0255 2.60042
      vertex 162 86.5996 0.400391
      vertex 162 83.0509 2.60285
    endloop
  endfacet
  facet normal 1 -0 0
    outer loop
      vertex 162 83 2.59961
      vertex 162 86.5996 0.400391
      vertex 162 83.0255 2.60042
    endloop
  endfacet
  facet normal 1 -0 0
    outer loop
      vertex 162 4 2.59961
      vertex 162 86.5996 0.400391
      vertex 162 83 2.59961
    endloop
  endfacet
  facet normal 1 0 0
    outer loop
      vertex 162 0.400391 4.59961
      vertex 162 3.59997 2.98301
      vertex 162 3.5997 3.0085
    endloop
  endfacet
  facet normal 1 0 0
    outer loop
      vertex 162 0.400391 4.59961
      vertex 162 3.60186 2.95758
      vertex 162 3.59997 2.98301
    endloop
  endfacet
  facet normal 1 0 0
    outer loop
      vertex 162 0.400391 4.59961
      vertex 162 3.60537 2.93233
      vertex 162 3.60186 2.95758
    endloop
  endfacet
  facet normal 1 0 0
    outer loop
      vertex 162 0.400391 0.400391
      vertex 162 3.60537 2.93233
      vertex 162 0.400391 4.59961
    endloop
  endfacet
  facet normal 1 0 0
    outer loop
      vertex 162 3.60537 2.93233
      vertex 162 0.400391 0.400391
      vertex 162 3.61047 2.90736
    endloop
  endfacet
  facet normal 1 0 0
    outer loop
      vertex 162 3.61047 2.90736
      vertex 162 0.400391 0.400391
      vertex 162 3.61716 2.88276
    endloop
  endfacet
  facet normal 1 0 0
    outer loop
      vertex 162 3.61716 2.88276
      vertex 162 0.400391 0.400391
      vertex 162 3.6254 2.85863
    endloop
  endfacet
  facet normal 1 0 0
    outer loop
      vertex 162 3.6254 2.85863
      vertex 162 0.400391 0.400391
      vertex 162 3.63515 2.83508
    endloop
  endfacet
  facet normal 1 0 0
    outer loop
      vertex 162 3.63515 2.83508
      vertex 162 0.400391 0.400391
      vertex 162 3.64639 2.81219
    endloop
  endfacet
  facet normal 1 0 0
    outer loop
      vertex 162 3.64639 2.81219
      vertex 162 0.400391 0.400391
      vertex 162 3.65906 2.79007
    endloop
  endfacet
  facet normal 1 0 0
    outer loop
      vertex 162 3.65906 2.79007
      vertex 162 0.400391 0.400391
      vertex 162 3.67311 2.7688
    endloop
  endfacet
  facet normal 1 0 0
    outer loop
      vertex 162 3.67311 2.7688
      vertex 162 0.400391 0.400391
      vertex 162 3.68848 2.74847
    endloop
  endfacet
  facet normal 1 0 0
    outer loop
      vertex 162 3.68848 2.74847
      vertex 162 0.400391 0.400391
      vertex 162 3.70512 2.72915
    endloop
  endfacet
  facet normal 1 0 0
    outer loop
      vertex 162 3.70512 2.72915
      vertex 162 0.400391 0.400391
      vertex 162 3.72295 2.71093
    endloop
  endfacet
  facet normal 1 0 0
    outer loop
      vertex 162 3.72295 2.71093
      vertex 162 0.400391 0.400391
      vertex 162 3.74191 2.69389
    endloop
  endfacet
  facet normal 1 0 0
    outer loop
      vertex 162 3.74191 2.69389
      vertex 162 0.400391 0.400391
      vertex 162 3.76191 2.67809
    endloop
  endfacet
  facet normal 1 0 0
    outer loop
      vertex 162 3.76191 2.67809
      vertex 162 0.400391 0.400391
      vertex 162 3.78288 2.66359
    endloop
  endfacet
  facet normal 1 0 0
    outer loop
      vertex 162 4 2.59961
      vertex 162 0.400391 0.400391
      vertex 162 86.5996 0.400391
    endloop
  endfacet
  facet normal 1 0 0
    outer loop
      vertex 162 3.97452 2.60042
      vertex 162 0.400391 0.400391
      vertex 162 4 2.59961
    endloop
  endfacet
  facet normal 1 0 0
    outer loop
      vertex 162 3.94914 2.60285
      vertex 162 0.400391 0.400391
      vertex 162 3.97452 2.60042
    endloop
  endfacet
  facet normal 1 0 0
    outer loop
      vertex 162 3.92397 2.60689
      vertex 162 0.400391 0.400391
      vertex 162 3.94914 2.60285
    endloop
  endfacet
  facet normal 1 0 0
    outer loop
      vertex 162 3.89911 2.61253
      vertex 162 0.400391 0.400391
      vertex 162 3.92397 2.60689
    endloop
  endfacet
  facet normal 1 0 0
    outer loop
      vertex 162 3.87466 2.61973
      vertex 162 0.400391 0.400391
      vertex 162 3.89911 2.61253
    endloop
  endfacet
  facet normal 1 0 0
    outer loop
      vertex 162 3.85071 2.62848
      vertex 162 0.400391 0.400391
      vertex 162 3.87466 2.61973
    endloop
  endfacet
  facet normal 1 0 0
    outer loop
      vertex 162 3.82737 2.63873
      vertex 162 0.400391 0.400391
      vertex 162 3.85071 2.62848
    endloop
  endfacet
  facet normal 1 0 0
    outer loop
      vertex 162 3.80473 2.65045
      vertex 162 0.400391 0.400391
      vertex 162 3.82737 2.63873
    endloop
  endfacet
  facet normal 1 0 0
    outer loop
      vertex 162 3.78288 2.66359
      vertex 162 0.400391 0.400391
      vertex 162 3.80473 2.65045
    endloop
  endfacet
  facet normal 0 1 -0
    outer loop
      vertex 161.6 87 0
      vertex 0.400391 87 5
      vertex 161.6 87 5
    endloop
  endfacet
  facet normal 0 1 0
    outer loop
      vertex 0.400391 87 5
      vertex 161.6 87 0
      vertex 0.400391 87 0
    endloop
  endfacet
  facet normal -0 0 1
    outer loop
      vertex 0.400391 87 5
      vertex 161.6 81 5
      vertex 161.6 87 5
    endloop
  endfacet
  facet normal 0 0 1
    outer loop
      vertex 161.6 81 5
      vertex 0.400391 87 5
      vertex 0.400391 81 5
    endloop
  endfacet
  facet normal 0 -0.707107 -0.707107
    outer loop
      vertex 0.400391 83 3
      vertex 161.6 81 5
      vertex 0.400391 81 5
    endloop
  endfacet
  facet normal 0 -0.707107 -0.707107
    outer loop
      vertex 161.6 81 5
      vertex 0.400391 83 3
      vertex 161.6 83 3
    endloop
  endfacet
  facet normal 0 0 1
    outer loop
      vertex 161.6 83 3
      vertex 156 81 3
      vertex 161.6 4 3
    endloop
  endfacet
  facet normal 0 0 1
    outer loop
      vertex 161.6 83 3
      vertex 6 81 3
      vertex 156 81 3
    endloop
  endfacet
  facet normal 0 0 1
    outer loop
      vertex 6 81 3
      vertex 0.400391 83 3
      vertex 6 6 3
    endloop
  endfacet
  facet normal -0 0 1
    outer loop
      vertex 0.400391 83 3
      vertex 6 81 3
      vertex 161.6 83 3
    endloop
  endfacet
  facet normal -0 0 1
    outer loop
      vertex 156 6 3
      vertex 161.6 4 3
      vertex 156 81 3
    endloop
  endfacet
  facet normal -0 0 1
    outer loop
      vertex 6 6 3
      vertex 161.6 4 3
      vertex 156 6 3
    endloop
  endfacet
  facet normal 0 0 1
    outer loop
      vertex 6 6 3
      vertex 0.400391 4 3
      vertex 161.6 4 3
    endloop
  endfacet
  facet normal 0 0 1
    outer loop
      vertex 0.400391 4 3
      vertex 6 6 3
      vertex 0.400391 83 3
    endloop
  endfacet
  facet normal 0 0.707107 -0.707107
    outer loop
      vertex 161.6 4 3
      vertex 0.400391 6 5
      vertex 161.6 6 5
    endloop
  endfacet
  facet normal 0 0.707107 -0.707107
    outer loop
      vertex 0.400391 6 5
      vertex 161.6 4 3
      vertex 0.400391 4 3
    endloop
  endfacet
  facet normal -0 0 1
    outer loop
      vertex 0.400391 6 5
      vertex 161.6 0 5
      vertex 161.6 6 5
    endloop
  endfacet
  facet normal 0 0 1
    outer loop
      vertex 161.6 0 5
      vertex 0.400391 6 5
      vertex 0.400391 0 5
    endloop
  endfacet
  facet normal 0 -1 0
    outer loop
      vertex 0.400391 0 0
      vertex 161.6 0 5
      vertex 0.400391 0 5
    endloop
  endfacet
  facet normal 0 -1 -0
    outer loop
      vertex 161.6 0 5
      vertex 0.400391 0 0
      vertex 161.6 0 0
    endloop
  endfacet
  facet normal 0 0 -1
    outer loop
      vertex 161.6 0 0
      vertex 156 6 0
      vertex 161.6 87 0
    endloop
  endfacet
  facet normal 0 0 -1
    outer loop
      vertex 161.6 0 0
      vertex 6 6 0
      vertex 156 6 0
    endloop
  endfacet
  facet normal -0 0 -1
    outer loop
      vertex 6 6 0
      vertex 0.400391 0 0
      vertex 6 81 0
    endloop
  endfacet
  facet normal 0 0 -1
    outer loop
      vertex 0.400391 0 0
      vertex 6 6 0
      vertex 161.6 0 0
    endloop
  endfacet
  facet normal 0 0 -1
    outer loop
      vertex 156 81 0
      vertex 161.6 87 0
      vertex 156 6 0
    endloop
  endfacet
  facet normal 0 0 -1
    outer loop
      vertex 6 81 0
      vertex 161.6 87 0
      vertex 156 81 0
    endloop
  endfacet
  facet normal 0 0 -1
    outer loop
      vertex 6 81 0
      vertex 0.400391 87 0
      vertex 161.6 87 0
    endloop
  endfacet
  facet normal 0 0 -1
    outer loop
      vertex 0.400391 87 0
      vertex 6 81 0
      vertex 0.400391 0 0
    endloop
  endfacet
  facet normal -1 0 0
    outer loop
      vertex 156 6 0
      vertex 156 81 3
      vertex 156 81 0
    endloop
  endfacet
  facet normal -1 -0 0
    outer loop
      vertex 156 81 3
      vertex 156 6 0
      vertex 156 6 3
    endloop
  endfacet
  facet normal 1 -0 0
    outer loop
      vertex 6 6 3
      vertex 6 81 0
      vertex 6 81 3
    endloop
  endfacet
  facet normal 1 0 0
    outer loop
      vertex 6 81 0
      vertex 6 6 3
      vertex 6 6 0
    endloop
  endfacet
  facet normal 0 -1 0
    outer loop
      vertex 6 81 0
      vertex 156 81 3
      vertex 6 81 3
    endloop
  endfacet
  facet normal 0 -1 -0
    outer loop
      vertex 156 81 3
      vertex 6 81 0
      vertex 156 81 0
    endloop
  endfacet
  facet normal 0 1 -0
    outer loop
      vertex 156 6 0
      vertex 6 6 3
      vertex 156 6 3
    endloop
  endfacet
  facet normal 0 1 0
    outer loop
      vertex 6 6 3
      vertex 156 6 0
      vertex 6 6 0
    endloop
  endfacet
endsolid OpenSCAD_Model
